<?xml version="1.0" standalone="no"?>
<svg viewBox="0 0 200 200" xmlns="http://www.w3.org/2000/svg">
  <path fill="#D6A6AE" d="M13.3,-19.2C18.5,-20.1,24.8,-19,35.5,-15.5C46.3,-11.9,61.6,-6,63.4,1.1C65.3,8.1,53.7,16.2,43.8,21.2C33.8,26.1,25.4,27.8,18.4,32.6C11.4,37.4,5.7,45.2,1.1,43.3C-3.4,41.3,-6.9,29.6,-16,26.1C-25.2,22.5,-40,27.1,-42.3,24.1C-44.7,21.1,-34.6,10.5,-31.8,1.6C-29,-7.3,-33.4,-14.6,-37.3,-28.3C-41.1,-42,-44.3,-62.1,-37.9,-60.6C-31.6,-59,-15.8,-36,-5.9,-25.8C4.1,-15.6,8.1,-18.4,13.3,-19.2Z" transform="translate(100 100)" />
</svg>
